# xmcd
#
# Track frame offsets: 
#        150
#        27327
#        47228
#        57698
#        76753
#        91693
#        105498
#        117008
#        130199
#        144900
#        167917
#        196324
#
# Disc length: 2760 seconds
#
# Revision: 0
# Processed by: cddbd v1.5.2PL0 Copyright (c) Steve Scherf et al.
# Submitted via: ExactAudioCopy v1.0b1
#
DISCID=980ac60c
DTITLE=Span - Pretty Ugle
DYEAR=2002
DGENRE=Ambient
TTITLE0=Bunsen
TTITLE1=Ricochet Daddy Jam
TTITLE2=Alpha Tower
TTITLE3=Casper Wineburger
TTITLE4=Carbon Copy
TTITLE5=Eagle Rock
TTITLE6=Drone
TTITLE7=Had Daer
TTITLE8=Symmetry Bulb
TTITLE9=The Boy Who Never Was
TTITLE10=Sunbeam
TTITLE11=Cosmetic
EXTD=
EXTT0=
EXTT1=
EXTT2=
EXTT3=
EXTT4=
EXTT5=
EXTT6=
EXTT7=
EXTT8=
EXTT9=
EXTT10=
EXTT11=
PLAYORDER=
